<svg width="30" height="30" viewBox="0 0 30 30" fill="none" xmlns="http://www.w3.org/2000/svg">
<path d="M5.44921 6.35743L6.32226 8.16211L8.30273 8.43164C8.69531 8.48438 8.83593 8.97071 8.5664 9.22852L7.11914 10.6172L7.47656 12.5859C7.54687 12.9727 7.13671 13.2656 6.79687 13.0781L5.0332 12.1289L3.26953 13.0781C2.92968 13.2598 2.50195 12.9785 2.5957 12.5566L2.94726 10.6113L1.49999 9.22266C1.21874 8.95313 1.37109 8.47266 1.76953 8.41993L3.74414 8.15039L4.61718 6.34571C4.78124 6 5.28515 6.00586 5.44921 6.35743ZM5.58984 8.79493L5.0332 7.63477L4.4707 8.79493C4.40624 8.92969 4.27148 9.03516 4.11328 9.0586L2.84179 9.22852L3.77343 10.1191C3.8789 10.2246 3.93749 10.377 3.9082 10.5352L3.67968 11.8008L4.80468 11.1973C4.93945 11.127 5.10937 11.1152 5.24999 11.1973L6.38085 11.8066L6.1582 10.5645C6.12304 10.4121 6.16406 10.2422 6.2871 10.1191L7.21874 9.22852L5.95898 9.0586C5.80664 9.04102 5.66015 8.94141 5.58984 8.79493ZM15.4219 2.10938L16.2949 3.91407L18.2812 4.1836C18.6738 4.23633 18.8144 4.72266 18.5449 4.98633L17.0977 6.375L17.4551 8.34375C17.5254 8.73047 17.1152 9.02344 16.7754 8.83594L15 7.88672L13.2363 8.83594C12.8965 9.01758 12.4687 8.73633 12.5625 8.31446L12.9141 6.36914L11.4609 4.98047C11.1797 4.71094 11.332 4.23047 11.7305 4.17774L13.7051 3.90821L14.5781 2.10938C14.7539 1.75196 15.2519 1.75782 15.4219 2.10938ZM15.5625 4.54688L15 3.38672L14.4434 4.54688C14.3789 4.68164 14.2441 4.78711 14.0859 4.81055L12.8086 4.98047L13.7402 5.8711C13.8516 5.97657 13.9043 6.12891 13.875 6.28711L13.6465 7.55274L14.7773 6.94922C14.9121 6.87891 15.0762 6.86719 15.2227 6.94922L16.3535 7.5586L16.1309 6.31641C16.0957 6.16407 16.1367 5.99414 16.2598 5.8711L17.1914 4.98047L15.9316 4.80469C15.7734 4.79297 15.6328 4.69336 15.5625 4.54688ZM25.3887 6.35743L26.2617 8.16211L28.2422 8.43164C28.6348 8.48438 28.7812 8.97071 28.5059 9.22852L27.0586 10.6172L27.416 12.5859C27.4863 12.9727 27.0762 13.2656 26.7363 13.0781L24.9727 12.1289L23.209 13.0781C22.8691 13.2598 22.4414 12.9785 22.5293 12.5566L22.8809 10.6113L21.4336 9.22266C21.1523 8.95313 21.3047 8.47266 21.7031 8.41993L23.6777 8.15039L24.5508 6.34571C24.7207 6 25.2246 6.00586 25.3887 6.35743ZM25.5293 8.79493L24.9727 7.63477L24.4102 8.79493C24.3457 8.92969 24.2168 9.03516 24.0527 9.0586L22.7812 9.22852L23.707 10.1191C23.8125 10.2246 23.8711 10.377 23.8418 10.5352L23.6133 11.8008L24.7441 11.1973C24.8789 11.127 25.0488 11.1152 25.1894 11.1973L26.3262 11.8066L26.1035 10.5645C26.0684 10.4121 26.1094 10.2422 26.2324 10.1191L27.1582 9.22852L25.8984 9.0586C25.7461 9.04102 25.5996 8.94141 25.5293 8.79493ZM12.8262 18.3223C12.6973 18.0996 12.7734 17.8125 12.9961 17.6836C13.2187 17.5547 13.5059 17.6309 13.6348 17.8535L14.25 18.9199L16.4355 16.7344C16.6172 16.5527 16.916 16.5527 17.0977 16.7344C17.2793 16.916 17.2793 17.2148 17.0977 17.3965L14.4785 20.0156C14.2617 20.2324 13.8984 20.1855 13.7461 19.9219L12.8262 18.3223ZM15 13.3711C17.5488 13.3711 19.6172 15.4395 19.6172 17.9883C19.6172 20.5371 17.5488 22.6055 15 22.6055C12.4512 22.6055 10.3828 20.5371 10.3828 17.9883C10.3828 15.4395 12.4512 13.3711 15 13.3711ZM17.6016 15.3867C16.166 13.9512 13.834 13.9512 12.3984 15.3867C10.9629 16.8223 10.9629 19.1543 12.3984 20.5898C13.834 22.0254 16.166 22.0254 17.6016 20.5898C19.0371 19.1484 19.0371 16.8223 17.6016 15.3867ZM15 10.4707C19.1484 10.4707 22.5117 13.834 22.5117 17.9824C22.5117 19.5527 22.0312 21.0117 21.2051 22.2188L23.4492 26.1035C23.666 26.4668 23.3672 26.877 22.9805 26.8184L20.6836 26.4551L19.4531 27.9668C19.2363 28.248 18.832 28.2012 18.6738 27.9199L17.1035 25.2012C15.7324 25.5996 14.2617 25.5996 12.8965 25.2012L11.3262 27.9199C11.168 28.2012 10.7637 28.248 10.5469 27.9668L9.3164 26.4551L7.01953 26.8184C6.62695 26.8828 6.35156 26.4551 6.53906 26.1211L8.79492 22.2188C6.75585 19.2363 7.13671 15.2227 9.6914 12.668C11.0449 11.3145 12.9258 10.4707 15 10.4707ZM20.584 23.0098C19.8691 23.8066 18.9902 24.4453 17.9941 24.8789L19.1426 26.8652L20.1269 25.6582C20.2383 25.5176 20.4082 25.4648 20.5723 25.4941L22.1543 25.7461L20.584 23.0098ZM12 24.8789C11.0098 24.4453 10.1309 23.8066 9.41601 23.0156L7.83984 25.7461L9.42187 25.4941C9.58007 25.4648 9.75585 25.5234 9.86718 25.6582L10.8516 26.8652L12 24.8789ZM19.6523 13.3359C17.0859 10.7695 12.9199 10.7695 10.3535 13.3359C7.7871 15.9023 7.7871 20.0684 10.3535 22.6348C12.9258 25.2012 17.0859 25.2012 19.6523 22.6348C22.2187 20.0684 22.2187 15.9023 19.6523 13.3359Z" fill="green"/>
</svg>
